v -0.5 0.5 -0.5
v -0.5 0.5 0.5
v -0.5 -0.5 -0.5
v -0.5 -0.5 0.5
v 0.5 0.5 0.5
v 0.5 0.5 -0.5
v 0.5 -0.5 0.5
v 0.5 -0.5 -0.5
v -0.5 -0.5 -0.5
v 0.5 -0.5 -0.5
v -0.5 0.5 -0.5
v 0.5 0.5 -0.5
v -0.5 0.5 0.5
v 0.5 0.5 0.5
v -0.5 -0.5 0.5
v 0.5 -0.5 0.5
v 0.5 -0.5 -0.5
v -0.5 -0.5 -0.5
v 0.5 -0.5 0.5
v -0.5 -0.5 0.5
v -0.5 0.5 -0.5
v 0.5 0.5 -0.5
v -0.5 0.5 0.5
v 0.5 0.5 0.5
vn 0.894427 -1.70897e-015 3.90966e-008
vn 0.894427 -1.70897e-015 3.90966e-008
vn 0.894427 -1.70897e-015 3.90966e-008
vn 0.894427 -1.70897e-015 3.90966e-008
vn -0.894427 -1.70897e-015 3.90966e-008
vn -0.894427 -1.70897e-015 3.90966e-008
vn -0.894427 -1.70897e-015 3.90966e-008
vn -0.894427 -1.70897e-015 3.90966e-008
vn 0 3.90967e-008 0.894427
vn 0 3.90967e-008 0.894427
vn 0 3.90967e-008 0.894427
vn 0 3.90967e-008 0.894427
vn 0 3.90967e-008 -0.894427
vn 0 3.90967e-008 -0.894427
vn 0 3.90967e-008 -0.894427
vn 0 3.90967e-008 -0.894427
vn -7.81933e-008 0.894427 0
vn -7.81933e-008 0.894427 0
vn -7.81933e-008 0.894427 0
vn -7.81933e-008 0.894427 0
vn 0 -0.894427 0
vn 0 -0.894427 0
vn 0 -0.894427 0
vn 0 -0.894427 0
#left
vt 0.25 0.5 0
vt 0 0.5 0
vt 0.25 0.25 0
vt 0 0.25 0
#right
vt 0.75 0.5 0
vt 0.5 0.5 0
vt 0.75 0.25 0
vt 0.5 0.25 0
#back
vt 0.25 0.25 0
vt 0.5 0.25 0
vt 0.25 0.5 0
vt 0.5 0.5 0
#front
vt 1 0.5 0
vt 0.75 0.5 0
vt 1 0.25 0
vt 0.75 0.25 0
#bottom
vt 0.5 0.25 0
vt 0.25 0.25 0
vt 0.5 0 0
vt 0.25 0 0
#top
vt 0.25 0.5 0
vt 0.5 0.5 0
vt 0.25 0.75 0
vt 0.5 0.75 0
f 1/1/1 2/2/2 4/4/4
f 1/1/1 4/4/4 3/3/3
f 5/5/5 6/6/6 8/8/8
f 5/5/5 8/8/8 7/7/7
f 9/9/9 10/10/10 12/12/12
f 9/9/9 12/12/12 11/11/11
f 13/13/13 14/14/14 16/16/16
f 13/13/13 16/16/16 15/15/15
f 17/17/17 18/18/18 20/20/20
f 17/17/17 20/20/20 19/19/19
f 21/21/21 22/22/22 24/24/24
f 21/21/21 24/24/24 23/23/23
